PathFileType	4	(X/Y/Z)	C:/Users/opensim2020/Desktop/walking_exp_matlab/subject01_walking12_straight_02.trc	
DataRate	CameraRate	NumFrames	NumMarkers	Units	OrigDataRate	OrigDataStartFrame	OrigNumFrames	
100.00	100.00	4	44	mm	100.00	1353	122	
Frame#	Time	LFHD			RFHD			LBHD			RBHD			C7			T10			CLAV			STRN			RBAK			LSHO			LUPA			LELB			LFRM			LWRA			LWRB			LFIN			RSHO			RUPA			RELB			RFRM			RWRA			RWRB			RFIN			LASI			RASI			LPSI			RPSI			LTHI			LKNE			LTIB			LANK			LHEE			LTOE			RTHI			RKNE			RTIB			RANK			RHEE			RTOE			*39			*40			*41			*42			*43			
		X1	Y1	Z1	X2	Y2	Z2	X3	Y3	Z3	X4	Y4	Z4	X5	Y5	Z5	X6	Y6	Z6	X7	Y7	Z7	X8	Y8	Z8	X9	Y9	Z9	X10	Y10	Z10	X11	Y11	Z11	X12	Y12	Z12	X13	Y13	Z13	X14	Y14	Z14	X15	Y15	Z15	X16	Y16	Z16	X17	Y17	Z17	X18	Y18	Z18	X19	Y19	Z19	X20	Y20	Z20	X21	Y21	Z21	X22	Y22	Z22	X23	Y23	Z23	X24	Y24	Z24	X25	Y25	Z25	X26	Y26	Z26	X27	Y27	Z27	X28	Y28	Z28	X29	Y29	Z29	X30	Y30	Z30	X31	Y31	Z31	X32	Y32	Z32	X33	Y33	Z33	X34	Y34	Z34	X35	Y35	Z35	X36	Y36	Z36	X37	Y37	Z37	X38	Y38	Z38	X39	Y39	Z39	X40	Y40	Z40	X41	Y41	Z41	X42	Y42	Z42	X43	Y43	Z43	X44	Y44	Z44	

107	1.060	1549.06799	-332.28607	1647.56921	1435.77136	-343.01300	1652.25464	1544.68237	-214.09656	1608.22253	1423.84204	-222.24554	1612.32361	1497.26965	-166.94580	1411.24500	1478.32520	-142.77962	1114.28845	1496.72290	-311.59280	1344.15491	1497.16296	-362.72293	1194.04016	1410.39111	-118.55222	1215.51440	1658.88257	-247.63879	1366.59949	1733.36694	-201.41762	1180.19165	1721.66199	-174.57896	1033.42505	1740.87964	-191.59045	920.79242	1715.14722	-245.79555	792.19434	1740.11511	-190.06578	798.04626	1739.24548	-217.91696	715.83521	1343.67078	-250.52142	1375.47888	1234.85229	-201.51962	1178.26318	1221.45935	-214.02077	1051.70398	1201.53516	-291.97244	953.64001	1238.18164	-412.06781	887.78967	1194.75940	-379.28955	867.57953	1202.53955	-448.44794	820.85809	1580.55066	-335.27057	919.86871	1363.88586	-321.68405	909.48431	1541.66895	-145.43390	923.07611	1396.75952	-138.42952	922.07306	1631.91772	-391.50555	605.58368	1610.59314	-415.81448	473.00766	1625.74146	-386.10535	285.22629	1576.35291	-363.79715	69.07144	1527.79846	-314.89749	39.43696	1572.60962	-510.85693	32.67310	1301.16675	-242.46571	574.82074	1314.32214	-224.76993	417.22614	1315.74646	-67.63892	335.07083	1360.28516	92.80614	206.51692	1414.74231	135.96581	233.23001	1378.13257	88.12925	59.15997	1458.91675	-332.56464	1685.86182	-3102.05762	1973.00549	1023.36902	-3140.72095	2012.55981	1022.11005						 
108	1.070	1550.10840	-345.07135	1648.20654	1436.72632	-355.42386	1652.95874	1546.09656	-226.77774	1609.09070	1425.24268	-234.56210	1613.33301	1498.58533	-179.34390	1412.10022	1479.63403	-154.57437	1115.28540	1497.59973	-323.74405	1344.88684	1497.86768	-374.50043	1194.67786	1411.74573	-130.19859	1216.67188	1659.90076	-260.45416	1367.59387	1735.23486	-216.84529	1180.93335	1724.34216	-191.28473	1033.81274	1743.78003	-209.93555	921.52179	1718.19495	-265.68893	793.49640	1743.49744	-210.02382	798.78375	1743.07813	-239.07455	717.03003	1344.88013	-262.09375	1376.33459	1236.50525	-212.37413	1178.99561	1224.34473	-223.63542	1052.24170	1203.79907	-299.58289	952.51074	1239.30566	-418.70572	884.37048	1196.19580	-385.10892	864.76526	1203.34363	-453.33517	816.55939	1582.19409	-346.78827	920.92383	1365.12048	-333.48438	910.57898	1542.59204	-156.88286	923.56409	1397.62012	-150.07101	921.36792	1633.30823	-399.20032	604.92657	1612.07446	-422.43484	472.27051	1625.36401	-388.74707	285.12204	1576.23804	-364.05804	69.18300	1527.70288	-315.15475	39.47844	1572.86572	-511.28333	32.62693	1302.22363	-262.89908	573.99530	1314.83191	-249.25282	416.81857	1315.21545	-91.25320	337.37604	1361.33215	72.14779	214.01549	1417.11182	114.60777	241.04047	1375.57764	72.31850	66.29668	1460.02527	-345.18158	1686.68042	-3101.89429	1973.12378	1023.43683	-3140.64282	2012.56152	1022.03760						 
109	1.080	1551.04785	-357.79584	1648.90247	1437.58362	-367.81927	1653.72656	1547.34424	-239.46858	1610.09302	1426.50623	-246.86987	1614.41125	1499.91309	-191.35027	1413.15344	1480.94604	-166.18234	1116.39905	1498.27197	-335.72949	1345.87354	1498.43298	-386.14545	1195.38318	1413.11938	-141.76720	1217.84851	1660.78015	-273.18997	1368.68201	1737.01477	-232.29111	1181.83752	1726.96655	-208.03735	1034.34216	1746.65845	-228.50961	922.38269	1721.38745	-286.02438	795.39227	1747.12195	-230.45882	799.82086	1746.91772	-260.82468	718.54010	1345.84949	-273.56067	1377.25793	1237.87903	-223.21016	1179.83423	1227.10034	-233.11649	1052.80505	1205.94568	-306.92468	951.41211	1240.33545	-425.00903	880.86737	1197.73584	-390.40216	861.90759	1204.23035	-457.73996	812.19495	1583.46301	-357.95480	921.76953	1366.06702	-345.01437	911.90094	1543.59485	-168.22995	924.13989	1398.72559	-161.50572	921.12079	1634.59839	-406.31601	604.04572	1613.18738	-428.66071	471.33240	1625.68811	-391.00772	285.19962	1576.07910	-364.55139	69.16428	1527.53345	-315.29813	39.79410	1572.87854	-511.63992	32.33038	1303.14917	-283.27771	574.22949	1315.29736	-273.69336	417.04849	1315.03308	-115.15755	339.49219	1363.20813	51.07641	220.82201	1420.79211	93.03410	246.66365	1372.03296	52.46817	73.05741	1460.98340	-357.87637	1687.52197	-3101.97119	1973.05127	1023.82129	-3140.61841	2012.48645	1022.11560						 
110	1.090	1551.72900	-370.53760	1649.73511	1438.21948	-380.23712	1654.56311	1548.38647	-252.03407	1611.21350	1427.43640	-259.15100	1615.58618	1501.03088	-203.17062	1414.22107	1482.27258	-177.67189	1117.58154	1498.85400	-347.67413	1346.87769	1498.89368	-397.74490	1196.32129	1414.66040	-153.15396	1219.02551	1661.44031	-285.86987	1369.83630	1738.69128	-247.65004	1182.94629	1729.56042	-224.72717	1035.06042	1749.54456	-247.24806	923.53760	1724.26843	-306.63309	797.15399	1750.54443	-251.31787	800.99084	1750.82373	-283.17712	720.41705	1346.78003	-285.00043	1378.33105	1239.13770	-233.91690	1180.77087	1229.74194	-242.51508	1053.34998	1208.00488	-313.99115	950.25989	1241.31714	-430.87289	877.28821	1199.15466	-395.31036	858.96063	1205.03162	-461.50000	807.63245	1584.63403	-369.16214	922.62561	1366.96204	-356.53210	913.58392	1544.68176	-179.43968	924.75897	1400.04919	-172.75575	921.39801	1635.92297	-413.02908	603.08917	1614.01379	-434.49210	470.21298	1626.48706	-393.48758	284.78467	1575.92737	-365.03467	69.26670	1527.30798	-315.56070	40.13029	1572.83240	-511.98648	32.08883	1303.97266	-303.12357	575.22577	1315.77625	-298.09088	417.94632	1315.25500	-139.49133	341.46420	1365.59558	29.23526	226.61330	1424.55432	70.65240	250.95204	1368.98242	30.07137	78.79197	1461.68115	-370.52136	1688.42358	-3101.99194	1973.07874	1023.62366	-3140.74658	2012.52734	1021.94287						 
